<?xml version="1.0" encoding="UTF-8" standalone="no"?>
<!-- Created with Inkscape (http://www.inkscape.org/) -->

<svg
   xmlns:dc="http://purl.org/dc/elements/1.1/"
   xmlns:cc="http://creativecommons.org/ns#"
   xmlns:rdf="http://www.w3.org/1999/02/22-rdf-syntax-ns#"
   xmlns:svg="http://www.w3.org/2000/svg"
   xmlns="http://www.w3.org/2000/svg"
   xmlns:sodipodi="http://sodipodi.sourceforge.net/DTD/sodipodi-0.dtd"
   xmlns:inkscape="http://www.inkscape.org/namespaces/inkscape"
   width="122.24413"
   height="84.190857"
   id="svg2"
   version="1.1"
   inkscape:version="0.48.2 r9819"
   sodipodi:docname="signalling_differential.svg"
   inkscape:export-filename="C:\Users\Mike\Desktop\driver_board\signalling_differential.png"
   inkscape:export-xdpi="1200"
   inkscape:export-ydpi="1200">
  <defs
     id="defs4" />
  <sodipodi:namedview
     id="base"
     pagecolor="#ffffff"
     bordercolor="#666666"
     borderopacity="1.0"
     inkscape:pageopacity="0.0"
     inkscape:pageshadow="2"
     inkscape:zoom="5.6568545"
     inkscape:cx="98.557055"
     inkscape:cy="36.46642"
     inkscape:document-units="px"
     inkscape:current-layer="layer1"
     showgrid="true"
     inkscape:window-width="1846"
     inkscape:window-height="1058"
     inkscape:window-x="-8"
     inkscape:window-y="231"
     inkscape:window-maximized="1"
     units="mm"
     fit-margin-top="2"
     fit-margin-bottom="2"
     fit-margin-left="2"
     fit-margin-right="2">
    <inkscape:grid
       type="xygrid"
       id="grid2985"
       empspacing="8"
       visible="true"
       enabled="true"
       snapvisiblegridlinesonly="true"
       units="in"
       spacingx="0.0125in"
       spacingy="0.0125in"
       originx="0.629in"
       originy="0.089in" />
    <inkscape:grid
       type="xygrid"
       id="grid3001"
       empspacing="4"
       visible="true"
       enabled="false"
       snapvisiblegridlinesonly="true"
       units="mm"
       spacingx="0.25mm"
       spacingy="0.25mm" />
  </sodipodi:namedview>
  <metadata
     id="metadata7">
    <rdf:RDF>
      <cc:Work
         rdf:about="">
        <dc:format>image/svg+xml</dc:format>
        <dc:type
           rdf:resource="http://purl.org/dc/dcmitype/StillImage" />
        <dc:title />
      </cc:Work>
    </rdf:RDF>
  </metadata>
  <g
     inkscape:label="Layer 1"
     inkscape:groupmode="layer"
     id="layer1"
     transform="translate(-372.04721,-484.51879)">
    <g
       id="g3053">
      <path
         transform="matrix(0.75,0,0,0.74999928,94.5,128.09093)"
         d="m 454.5,512.36218 c 0,2.48528 -2.01472,4.5 -4.5,4.5 -2.48528,0 -4.5,-2.01472 -4.5,-4.5 0,-2.48528 2.01472,-4.5 4.5,-4.5 2.48528,0 4.5,2.01472 4.5,4.5 z"
         sodipodi:ry="4.5"
         sodipodi:rx="4.5"
         sodipodi:cy="512.36218"
         sodipodi:cx="450"
         id="path3007"
         style="fill:#000000;fill-opacity:1;stroke:none"
         sodipodi:type="arc" />
      <path
         transform="matrix(0.75,0,0,0.74999928,94.5,119.09093)"
         d="m 454.5,512.36218 c 0,2.48528 -2.01472,4.5 -4.5,4.5 -2.48528,0 -4.5,-2.01472 -4.5,-4.5 0,-2.48528 2.01472,-4.5 4.5,-4.5 2.48528,0 4.5,2.01472 4.5,4.5 z"
         sodipodi:ry="4.5"
         sodipodi:rx="4.5"
         sodipodi:cy="512.36218"
         sodipodi:cx="450"
         id="path3007-7"
         style="fill:#000000;fill-opacity:1;stroke:none"
         sodipodi:type="arc" />
      <path
         transform="matrix(0.75,0,0,0.74999928,94.5,137.09092)"
         d="m 454.5,512.36218 c 0,2.48528 -2.01472,4.5 -4.5,4.5 -2.48528,0 -4.5,-2.01472 -4.5,-4.5 0,-2.48528 2.01472,-4.5 4.5,-4.5 2.48528,0 4.5,2.01472 4.5,4.5 z"
         sodipodi:ry="4.5"
         sodipodi:rx="4.5"
         sodipodi:cy="512.36218"
         sodipodi:cx="450"
         id="path3007-4"
         style="fill:#000000;fill-opacity:1;stroke:none"
         sodipodi:type="arc" />
      <path
         transform="matrix(0.75,0,0,0.74999928,94.5,146.09093)"
         d="m 454.5,512.36218 c 0,2.48528 -2.01472,4.5 -4.5,4.5 -2.48528,0 -4.5,-2.01472 -4.5,-4.5 0,-2.48528 2.01472,-4.5 4.5,-4.5 2.48528,0 4.5,2.01472 4.5,4.5 z"
         sodipodi:ry="4.5"
         sodipodi:rx="4.5"
         sodipodi:cy="512.36218"
         sodipodi:cx="450"
         id="path3007-0"
         style="fill:#000000;fill-opacity:1;stroke:none"
         sodipodi:type="arc" />
      <path
         transform="matrix(0.75,0,0,0.74999928,94.5,155.09093)"
         d="m 454.5,512.36218 c 0,2.48528 -2.01472,4.5 -4.5,4.5 -2.48528,0 -4.5,-2.01472 -4.5,-4.5 0,-2.48528 2.01472,-4.5 4.5,-4.5 2.48528,0 4.5,2.01472 4.5,4.5 z"
         sodipodi:ry="4.5"
         sodipodi:rx="4.5"
         sodipodi:cy="512.36218"
         sodipodi:cx="450"
         id="path3007-9"
         style="fill:#000000;fill-opacity:1;stroke:none"
         sodipodi:type="arc" />
      <path
         transform="matrix(0.75,0,0,0.74999928,94.5,164.09092)"
         d="m 454.5,512.36218 c 0,2.48528 -2.01472,4.5 -4.5,4.5 -2.48528,0 -4.5,-2.01472 -4.5,-4.5 0,-2.48528 2.01472,-4.5 4.5,-4.5 2.48528,0 4.5,2.01472 4.5,4.5 z"
         sodipodi:ry="4.5"
         sodipodi:rx="4.5"
         sodipodi:cy="512.36218"
         sodipodi:cx="450"
         id="path3007-4-4"
         style="fill:#000000;fill-opacity:1;stroke:none"
         sodipodi:type="arc" />
      <path
         transform="matrix(0.75,0,0,0.74999928,94.5,173.09093)"
         d="m 454.5,512.36218 c 0,2.48528 -2.01472,4.5 -4.5,4.5 -2.48528,0 -4.5,-2.01472 -4.5,-4.5 0,-2.48528 2.01472,-4.5 4.5,-4.5 2.48528,0 4.5,2.01472 4.5,4.5 z"
         sodipodi:ry="4.5"
         sodipodi:rx="4.5"
         sodipodi:cy="512.36218"
         sodipodi:cx="450"
         id="path3007-0-8"
         style="fill:#000000;fill-opacity:1;stroke:none"
         sodipodi:type="arc" />
      <path
         transform="matrix(0.75,0,0,0.74999928,121.53221,128.05338)"
         d="m 454.5,512.36218 c 0,2.48528 -2.01472,4.5 -4.5,4.5 -2.48528,0 -4.5,-2.01472 -4.5,-4.5 0,-2.48528 2.01472,-4.5 4.5,-4.5 2.48528,0 4.5,2.01472 4.5,4.5 z"
         sodipodi:ry="4.5"
         sodipodi:rx="4.5"
         sodipodi:cy="512.36218"
         sodipodi:cx="450"
         id="path3007-8"
         style="fill:#000000;fill-opacity:1;stroke:none"
         sodipodi:type="arc" />
      <path
         transform="matrix(0.75,0,0,0.74999928,121.53221,119.05338)"
         d="m 454.5,512.36218 c 0,2.48528 -2.01472,4.5 -4.5,4.5 -2.48528,0 -4.5,-2.01472 -4.5,-4.5 0,-2.48528 2.01472,-4.5 4.5,-4.5 2.48528,0 4.5,2.01472 4.5,4.5 z"
         sodipodi:ry="4.5"
         sodipodi:rx="4.5"
         sodipodi:cy="512.36218"
         sodipodi:cx="450"
         id="path3007-7-2"
         style="fill:#000000;fill-opacity:1;stroke:none"
         sodipodi:type="arc" />
      <path
         transform="matrix(0.75,0,0,0.74999928,121.53221,137.05337)"
         d="m 454.5,512.36218 c 0,2.48528 -2.01472,4.5 -4.5,4.5 -2.48528,0 -4.5,-2.01472 -4.5,-4.5 0,-2.48528 2.01472,-4.5 4.5,-4.5 2.48528,0 4.5,2.01472 4.5,4.5 z"
         sodipodi:ry="4.5"
         sodipodi:rx="4.5"
         sodipodi:cy="512.36218"
         sodipodi:cx="450"
         id="path3007-4-45"
         style="fill:#000000;fill-opacity:1;stroke:none"
         sodipodi:type="arc" />
      <path
         transform="matrix(0.75,0,0,0.74999928,121.53221,146.05338)"
         d="m 454.5,512.36218 c 0,2.48528 -2.01472,4.5 -4.5,4.5 -2.48528,0 -4.5,-2.01472 -4.5,-4.5 0,-2.48528 2.01472,-4.5 4.5,-4.5 2.48528,0 4.5,2.01472 4.5,4.5 z"
         sodipodi:ry="4.5"
         sodipodi:rx="4.5"
         sodipodi:cy="512.36218"
         sodipodi:cx="450"
         id="path3007-0-5"
         style="fill:#000000;fill-opacity:1;stroke:none"
         sodipodi:type="arc" />
      <path
         transform="matrix(0.75,0,0,0.74999928,121.53221,155.05338)"
         d="m 454.5,512.36218 c 0,2.48528 -2.01472,4.5 -4.5,4.5 -2.48528,0 -4.5,-2.01472 -4.5,-4.5 0,-2.48528 2.01472,-4.5 4.5,-4.5 2.48528,0 4.5,2.01472 4.5,4.5 z"
         sodipodi:ry="4.5"
         sodipodi:rx="4.5"
         sodipodi:cy="512.36218"
         sodipodi:cx="450"
         id="path3007-9-1"
         style="fill:#000000;fill-opacity:1;stroke:none"
         sodipodi:type="arc" />
      <path
         transform="matrix(0.75,0,0,0.74999928,121.53221,164.05337)"
         d="m 454.5,512.36218 c 0,2.48528 -2.01472,4.5 -4.5,4.5 -2.48528,0 -4.5,-2.01472 -4.5,-4.5 0,-2.48528 2.01472,-4.5 4.5,-4.5 2.48528,0 4.5,2.01472 4.5,4.5 z"
         sodipodi:ry="4.5"
         sodipodi:rx="4.5"
         sodipodi:cy="512.36218"
         sodipodi:cx="450"
         id="path3007-4-4-7"
         style="fill:#000000;fill-opacity:1;stroke:none"
         sodipodi:type="arc" />
      <path
         transform="matrix(0.75,0,0,0.74999928,121.53221,173.05338)"
         d="m 454.5,512.36218 c 0,2.48528 -2.01472,4.5 -4.5,4.5 -2.48528,0 -4.5,-2.01472 -4.5,-4.5 0,-2.48528 2.01472,-4.5 4.5,-4.5 2.48528,0 4.5,2.01472 4.5,4.5 z"
         sodipodi:ry="4.5"
         sodipodi:rx="4.5"
         sodipodi:cy="512.36218"
         sodipodi:cx="450"
         id="path3007-0-8-1"
         style="fill:#000000;fill-opacity:1;stroke:none"
         sodipodi:type="arc" />
      <path
         inkscape:connector-curvature="0"
         id="path3112"
         d="m 432,512.36219 0,-9"
         style="fill:none;stroke:#000000;stroke-width:4.5;stroke-linecap:butt;stroke-linejoin:miter;stroke-miterlimit:4;stroke-opacity:1;stroke-dasharray:none" />
      <path
         inkscape:connector-curvature="0"
         id="path3882"
         d="m 432,521.36219 0,9"
         style="fill:none;stroke:#000000;stroke-width:4.5;stroke-linecap:butt;stroke-linejoin:miter;stroke-miterlimit:4;stroke-opacity:1;stroke-dasharray:none" />
      <path
         sodipodi:nodetypes="ccc"
         inkscape:connector-curvature="0"
         id="path3886"
         d="m 432,548.36219 27.03221,-0.0376 0,-9"
         style="fill:none;stroke:#000000;stroke-width:4.5;stroke-linecap:round;stroke-linejoin:round;stroke-miterlimit:4;stroke-opacity:1;stroke-dasharray:none" />
    </g>
    <path
       sodipodi:type="arc"
       style="fill:#000000;fill-opacity:1;stroke:none"
       id="path3003"
       sodipodi:cx="403.93701"
       sodipodi:cy="506.6929"
       sodipodi:rx="3.5433071"
       sodipodi:ry="3.5433071"
       d="m 407.48032,506.6929 c 0,1.95692 -1.58639,3.54331 -3.54331,3.54331 -1.95691,0 -3.54331,-1.58639 -3.54331,-3.54331 0,-1.95691 1.5864,-3.54331 3.54331,-3.54331 1.95692,0 3.54331,1.5864 3.54331,3.54331 z"
       transform="matrix(1.0000031,0,0,1.0000031,-21.260737,14.181043)" />
    <path
       transform="translate(-21.259885,26.583674)"
       sodipodi:type="arc"
       style="fill:#000000;fill-opacity:1;stroke:none"
       id="path3003-1"
       sodipodi:cx="403.93701"
       sodipodi:cy="506.6929"
       sodipodi:rx="3.5433071"
       sodipodi:ry="3.5433071"
       d="m 407.48032,506.6929 c 0,1.95692 -1.58639,3.54331 -3.54331,3.54331 -1.95691,0 -3.54331,-1.58639 -3.54331,-3.54331 0,-1.95691 1.5864,-3.54331 3.54331,-3.54331 1.95692,0 3.54331,1.5864 3.54331,3.54331 z" />
    <path
       sodipodi:type="arc"
       style="fill:#000000;fill-opacity:1;stroke:none"
       id="path3003-7"
       sodipodi:cx="403.93701"
       sodipodi:cy="506.6929"
       sodipodi:rx="3.5433071"
       sodipodi:ry="3.5433071"
       d="m 407.48032,506.6929 c 0,1.95692 -1.58639,3.54331 -3.54331,3.54331 -1.95691,0 -3.54331,-1.58639 -3.54331,-3.54331 0,-1.95691 1.5864,-3.54331 3.54331,-3.54331 1.95692,0 3.54331,1.5864 3.54331,3.54331 z"
       transform="matrix(1.0000048,0,0,1.0000048,-21.261411,1.7786132)" />
    <path
       sodipodi:type="arc"
       style="fill:#000000;fill-opacity:1;stroke:none"
       id="path3003-7-4"
       sodipodi:cx="403.93701"
       sodipodi:cy="506.6929"
       sodipodi:rx="3.5433071"
       sodipodi:ry="3.5433071"
       d="m 407.48032,506.6929 c 0,1.95692 -1.58639,3.54331 -3.54331,3.54331 -1.95691,0 -3.54331,-1.58639 -3.54331,-3.54331 0,-1.95691 1.5864,-3.54331 3.54331,-3.54331 1.95692,0 3.54331,1.5864 3.54331,3.54331 z"
       transform="matrix(1.0000047,0,0,1.0000047,-21.261368,-10.622895)" />
    <path
       style="fill:none;stroke:#000000;stroke-width:3.54299998;stroke-linecap:round;stroke-linejoin:round;stroke-miterlimit:4;stroke-opacity:1;stroke-dasharray:none"
       d="m 382.67713,496.07185 31.00397,0.009 3.54331,-2.66635 34.72118,-0.0376 7.08662,6.57278 0,3.375"
       id="path3059"
       inkscape:connector-curvature="0"
       sodipodi:nodetypes="cccccc" />
    <path
       style="fill:none;stroke:#000000;stroke-width:3.54299998;stroke-linecap:round;stroke-linejoin:round;stroke-miterlimit:4;stroke-opacity:1;stroke-dasharray:none"
       d="m 382.67713,520.875 35.43311,-0.009 4.88976,-8.50394 9,0"
       id="path3061"
       inkscape:connector-curvature="0"
       sodipodi:nodetypes="cccc" />
    <path
       style="fill:none;stroke:#000000;stroke-width:3.54299998;stroke-linecap:round;stroke-linejoin:round;stroke-miterlimit:4;stroke-opacity:1;stroke-dasharray:none"
       d="m 382.67713,533.27658 35.43311,-0.009 4.88976,6.09449 9,0"
       id="path3063"
       inkscape:connector-curvature="0"
       sodipodi:nodetypes="cccc" />
    <path
       sodipodi:type="arc"
       style="fill:#000000;fill-opacity:1;stroke:none"
       id="path3003-0"
       sodipodi:cx="403.93701"
       sodipodi:cy="506.6929"
       sodipodi:rx="3.5433071"
       sodipodi:ry="3.5433071"
       d="m 407.48032,506.6929 c 0,1.95692 -1.58639,3.54331 -3.54331,3.54331 -1.95691,0 -3.54331,-1.58639 -3.54331,-3.54331 0,-1.95691 1.5864,-3.54331 3.54331,-3.54331 1.95692,0 3.54331,1.5864 3.54331,3.54331 z"
       transform="translate(79.724372,37.21359)" />
    <path
       transform="matrix(0.99999886,0,0,0.99999886,79.72487,49.615776)"
       sodipodi:type="arc"
       style="fill:#000000;fill-opacity:1;stroke:none"
       id="path3003-1-9"
       sodipodi:cx="403.93701"
       sodipodi:cy="506.6929"
       sodipodi:rx="3.5433071"
       sodipodi:ry="3.5433071"
       d="m 407.48032,506.6929 c 0,1.95692 -1.58639,3.54331 -3.54331,3.54331 -1.95691,0 -3.54331,-1.58639 -3.54331,-3.54331 0,-1.95691 1.5864,-3.54331 3.54331,-3.54331 1.95692,0 3.54331,1.5864 3.54331,3.54331 z" />
    <path
       style="fill:none;stroke:#000000;stroke-width:3.54299998;stroke-linecap:round;stroke-linejoin:round;stroke-miterlimit:4;stroke-opacity:1;stroke-dasharray:none"
       d="m 483.66138,556.30807 -12.40157,0 -1.96654,1.06299 -10.26106,-0.0464"
       id="path3856"
       inkscape:connector-curvature="0"
       sodipodi:nodetypes="cccc" />
    <path
       style="fill:none;stroke:#000000;stroke-width:3.54299998;stroke-linecap:round;stroke-linejoin:round;stroke-miterlimit:4;stroke-opacity:1;stroke-dasharray:none"
       d="m 483.66138,543.90649 -12.40157,1.3e-4 -5.4776,4.41802 -6.75,1.3e-4"
       id="path3858"
       inkscape:connector-curvature="0"
       sodipodi:nodetypes="cccc" />
    <path
       sodipodi:type="arc"
       style="fill:#000000;fill-opacity:1;stroke:none"
       id="path3013"
       sodipodi:cx="18.602362"
       sodipodi:cy="32.784431"
       sodipodi:rx="4.4291339"
       sodipodi:ry="4.4291339"
       d="m 23.031496,32.784431 c 0,2.446144 -1.982991,4.429134 -4.429134,4.429134 -2.446143,0 -4.429134,-1.98299 -4.429134,-4.429134 0,-2.446143 1.982991,-4.429133 4.429134,-4.429133 2.446143,0 4.429134,1.98299 4.429134,4.429133 z"
       transform="matrix(0.80000056,0,0,0.80000056,389.0551,494.64742)" />
    <path
       sodipodi:type="arc"
       style="fill:#000000;fill-opacity:1;stroke:none"
       id="path3015"
       sodipodi:cx="18.602362"
       sodipodi:cy="45.186005"
       sodipodi:rx="5.3271222"
       sodipodi:ry="5.3271222"
       d="m 23.929484,45.186005 c 0,2.942088 -2.385034,5.327122 -5.327122,5.327122 -2.942089,0 -5.327123,-2.385034 -5.327123,-5.327122 0,-2.942089 2.385034,-5.327123 5.327123,-5.327123 2.942088,0 5.327122,2.385034 5.327122,5.327123 z"
       transform="matrix(0.66514524,0,0,0.66514524,405.73696,503.22131)" />
    <path
       sodipodi:type="arc"
       style="fill:#000000;fill-opacity:1;stroke:none"
       id="path3015-1"
       sodipodi:cx="18.602362"
       sodipodi:cy="45.186005"
       sodipodi:rx="5.3271222"
       sodipodi:ry="5.3271222"
       d="m 23.929484,45.186005 c 0,2.942088 -2.385034,5.327122 -5.327122,5.327122 -2.942089,0 -5.327123,-2.385034 -5.327123,-5.327122 0,-2.942089 2.385034,-5.327123 5.327123,-5.327123 2.942088,0 5.327122,2.385034 5.327122,5.327123 z"
       transform="matrix(0.66514524,0,0,0.66514524,405.73696,528.02446)" />
    <path
       sodipodi:type="arc"
       style="fill:#000000;fill-opacity:1;stroke:none"
       id="path3013-7"
       sodipodi:cx="18.602362"
       sodipodi:cy="32.784431"
       sodipodi:rx="4.4291339"
       sodipodi:ry="4.4291339"
       d="m 23.031496,32.784431 c 0,2.446144 -1.982991,4.429134 -4.429134,4.429134 -2.446143,0 -4.429134,-1.98299 -4.429134,-4.429134 0,-2.446143 1.982991,-4.429133 4.429134,-4.429133 2.446143,0 4.429134,1.98299 4.429134,4.429133 z"
       transform="matrix(0.79999907,0,0,0.79999907,389.05513,519.45062)" />
    <path
       sodipodi:type="arc"
       style="fill:#000000;fill-opacity:1;stroke:none"
       id="path3053"
       sodipodi:cx="7.0866141"
       sodipodi:cy="10.638757"
       sodipodi:rx="4.4291339"
       sodipodi:ry="4.4291339"
       d="m 11.515748,10.638757 c 0,2.446143 -1.9829908,4.429134 -4.4291339,4.429134 -2.4461431,0 -4.4291339,-1.982991 -4.4291339,-4.429134 0,-2.4461434 1.9829908,-4.4291341 4.4291339,-4.4291341 2.4461431,0 4.4291339,1.9829907 4.4291339,4.4291341 z"
       transform="matrix(0.80000009,0,0,0.80000009,398.26771,487.56083)" />
    <path
       sodipodi:type="arc"
       style="fill:#000000;fill-opacity:1;stroke:none"
       id="path3053-4"
       sodipodi:cx="7.0866141"
       sodipodi:cy="10.638757"
       sodipodi:rx="4.4291339"
       sodipodi:ry="4.4291339"
       d="m 11.515748,10.638757 c 0,2.446143 -1.9829908,4.429134 -4.4291339,4.429134 -2.4461431,0 -4.4291339,-1.982991 -4.4291339,-4.429134 0,-2.4461434 1.9829908,-4.4291341 4.4291339,-4.4291341 2.4461431,0 4.4291339,1.9829907 4.4291339,4.4291341 z"
       transform="matrix(0.80000009,0,0,0.80000009,398.26768,496.41911)" />
  </g>
</svg>
